# xmcd
#
# Track frame offsets:
# 150
# 15742
# 29477
# 44850
# 57242
# 73965
# 85570
# 96770
# 113737
# 126787
# 138785
# 153192
# 164155
# 181412
# 195517
#
# Disc length: 2787 seconds
#
#
# Revision: 0
# Processed by: cddbd v1.5.2PL0 Copyright (c) Steve Scherf et al.
# Submitted via: FreeRIP 2.951 
#
DISCID=ce0ae10f
DTITLE=SuperCountry - Festival Favorites
DYEAR=1996
DGENRE=Country
TTITLE0=The Gambler
TTITLE1=Nah Neh Nah
TTITLE2=Country Roads
TTITLE3=Jambalaya
TTITLE4=The Wanderer
TTITLE5=Take It Easy
TTITLE6=Dixie
TTITLE7=Beautiful Body
TTITLE8=Crying in the Rain
TTITLE9=That'll Be the Day
TTITLE10=Hillbilly Highway
TTITLE11=C'mon Everybody
TTITLE12=Walk of Life
TTITLE13=Bad Moon Rising
TTITLE14=Jackson
EXTD=
EXTT0=
EXTT1=
EXTT2=
EXTT3=
EXTT4=
EXTT5=
EXTT6=
EXTT7=
EXTT8=
EXTT9=
EXTT10=
EXTT11=
EXTT12=
EXTT13=
EXTT14=
PLAYORDER=
